<svg xmlns="http://www.w3.org/2000/svg" width="24" height="24" fill="currentColor" viewBox="1.98 1.94 6.04 6.04"><path d="M4.148 3.025c.269-.544.403-.816.583-.906a.6.6 0 0 1 .538 0c.18.09.314.362.583.906.105.215.158.322.235.406a.8.8 0 0 0 .26.189c.103.047.221.064.458.098.6.087.9.131 1.042.275a.6.6 0 0 1 .166.51c-.03.2-.247.411-.682.835-.171.167-.257.25-.313.35a.8.8 0 0 0-.099.304c-.013.113.008.231.048.467.103.598.154.897.061 1.076a.6.6 0 0 1-.434.315c-.2.033-.468-.108-1.005-.39-.211-.112-.317-.167-.429-.19a.8.8 0 0 0-.32 0c-.112.023-.218.079-.43.19-.536.282-.805.423-1.004.39a.6.6 0 0 1-.434-.315c-.093-.18-.042-.478.06-1.076.041-.236.062-.354.049-.467a.8.8 0 0 0-.1-.305c-.055-.099-.141-.182-.312-.35-.435-.423-.652-.634-.682-.834a.6.6 0 0 1 .166-.51c.142-.144.442-.188 1.042-.275.237-.034.355-.051.458-.098a.8.8 0 0 0 .26-.189c.077-.084.13-.191.235-.406"/></svg>