<svg xmlns="http://www.w3.org/2000/svg" width="24" height="24" fill="currentColor" viewBox="1.93 1.60 6.80 6.80"><path d="M3.3 1.6a.5.5 0 0 1 .5.5c0 .221.179.4.4.4h2.727c.47 0 .705 0 .809.095a.36.36 0 0 1 .115.292c-.01.14-.182.301-.524.623-.223.21-.334.315-.374.438a.5.5 0 0 0 0 .304c.04.123.151.228.374.438.342.322.513.484.524.623a.36.36 0 0 1-.115.292c-.104.095-.34.095-.809.095H4.56c-.338 0-.508 0-.62.096a.4.4 0 0 0-.044.044c-.096.113-.096.282-.096.62V7.9a.5.5 0 0 1-1 0V2.1a.5.5 0 0 1 .5-.5"/></svg>