<svg xmlns="http://www.w3.org/2000/svg" width="24" height="24" fill="currentColor" viewBox="1.73 1.73 6.54 6.54"><path d="M4.13 3.533c.147.018.235.241.411.687l.275.696c.035.09.053.134.085.169l.014.014c.035.032.08.05.168.084l.697.275c.446.175.668.264.686.412q.005.03 0 .06c-.018.147-.24.235-.686.411l-.697.275a.5.5 0 0 0-.182.1.5.5 0 0 0-.085.167l-.275.697c-.176.446-.264.668-.412.686a.3.3 0 0 1-.06 0c-.147-.018-.236-.24-.411-.686l-.275-.697c-.035-.089-.052-.133-.084-.168l-.014-.014a.5.5 0 0 0-.17-.085L2.42 6.34c-.446-.176-.67-.264-.687-.412a.3.3 0 0 1 0-.06c.018-.147.241-.235.687-.411l.696-.275c.089-.035.134-.052.169-.084l.014-.014c.032-.035.049-.08.084-.17l.275-.695c.176-.446.264-.67.412-.687a.3.3 0 0 1 .06 0m2.7-1.8c.147.018.236.241.412.688l.02.05c.034.089.053.134.084.168l.015.015c.034.031.079.049.168.084l.05.02c.446.175.669.264.687.412q.003.03 0 .06c-.018.147-.24.235-.687.411l-.05.02c-.09.036-.134.053-.168.085l-.015.014a.5.5 0 0 0-.085.17l-.02.05c-.175.445-.264.669-.412.687a.3.3 0 0 1-.06 0c-.147-.018-.235-.242-.411-.688l-.02-.05a.5.5 0 0 0-.085-.169l-.014-.014c-.035-.032-.08-.05-.168-.084l-.051-.02c-.446-.177-.67-.265-.688-.413a.3.3 0 0 1 0-.06c.019-.147.242-.236.688-.412l.05-.02c.09-.034.134-.052.169-.083l.014-.015a.5.5 0 0 0 .085-.169l.02-.05c.176-.446.264-.67.412-.687a.3.3 0 0 1 .06 0"/></svg>