<svg width="10" height="10" viewBox="0 0 10 10" fill="none" xmlns="http://www.w3.org/2000/svg">
<g filter="url(#filter0_i_1136_3427)">
<path d="M3.68367 3.78003C4.23523 2.82469 4.51101 2.34702 4.9164 2.30441C4.972 2.29857 5.02805 2.29857 5.08365 2.30441C5.48903 2.34702 5.76482 2.82469 6.31638 3.78003L6.77538 4.57503L7.23437 5.37003C7.78594 6.32537 8.06172 6.80304 7.89592 7.17542C7.87319 7.22649 7.84516 7.27503 7.8123 7.32026C7.57271 7.65003 7.02114 7.65003 5.91801 7.65003H5.00002H4.08204C2.97891 7.65003 2.42734 7.65003 2.18775 7.32026C2.15489 7.27503 2.12686 7.22649 2.10412 7.17542C1.93833 6.80304 2.21411 6.32537 2.76568 5.37003L3.22467 4.57503L3.68367 3.78003Z" fill="white"/>
</g>
<defs>
<filter id="filter0_i_1136_3427" x="0" y="0" width="10" height="10" filterUnits="userSpaceOnUse" color-interpolation-filters="sRGB">
<feFlood flood-opacity="0" result="BackgroundImageFix"/>
<feBlend mode="normal" in="SourceGraphic" in2="BackgroundImageFix" result="shape"/>
<feColorMatrix in="SourceAlpha" type="matrix" values="0 0 0 0 0 0 0 0 0 0 0 0 0 0 0 0 0 0 127 0" result="hardAlpha"/>
<feOffset/>
<feGaussianBlur stdDeviation="1"/>
<feComposite in2="hardAlpha" operator="arithmetic" k2="-1" k3="1"/>
<feColorMatrix type="matrix" values="0 0 0 0 0.942 0 0 0 0 0.94 0 0 0 0 1 0 0 0 0.1 0"/>
<feBlend mode="hard-light" in2="shape" result="effect1_innerShadow_1136_3427"/>
</filter>
</defs>
</svg>
